<svg id="visual" viewBox="0 0 900 600" width="900" height="600" xmlns="http://www.w3.org/2000/svg" xmlns:xlink="http://www.w3.org/1999/xlink" version="1.1"><rect x="0" y="0" width="900" height="600" fill="#b7b7a4"></rect><g transform="translate(-24.761445153229346 663.841175356567)"><path d="M161.3 -307.5C222.7 -244 295.4 -228.3 358.2 -185C421 -141.7 474 -70.8 458.1 -9.2C442.3 52.5 357.5 105 316.7 186.4C275.9 267.8 278.9 378.1 233.5 409.4C188 440.6 94 392.8 21 356.4C-52 320.1 -104 295.1 -152.6 265.7C-201.3 236.3 -246.6 202.4 -291.4 157.4C-336.2 112.3 -380.6 56.2 -399.8 -11.1C-419 -78.3 -413 -156.7 -392.2 -243.3C-371.4 -329.9 -335.7 -424.7 -267.8 -484.4C-200 -544.1 -100 -568.5 -25 -525.2C50 -481.9 100 -370.9 161.3 -307.5" fill="#465E54"></path></g></svg>