<svg id="visual" viewBox="0 0 900 600" width="900" height="600" xmlns="http://www.w3.org/2000/svg" xmlns:xlink="http://www.w3.org/1999/xlink" version="1.1"><rect x="0" y="0" width="900" height="600" fill="#73937E"></rect><g transform="translate(20.689483746059324 672.4108126592632)"><path d="M239.2 -450.9C294 -382.6 311.6 -286.3 340.8 -206.5C370.1 -126.7 411 -63.3 406.4 -2.7C401.8 58 351.6 116 313.7 180.8C275.8 245.6 250.1 317.2 199.9 359.9C149.7 402.6 74.8 416.3 5.8 406.2C-63.2 396.1 -126.3 362.1 -190.3 327.4C-254.2 292.6 -318.9 257.1 -371.2 202.4C-423.4 147.7 -463.2 73.8 -442.6 11.9C-421.9 -50 -340.9 -100 -299.6 -173.8C-258.4 -247.5 -256.9 -345 -213.6 -420C-170.3 -495 -85.2 -547.5 3.5 -553.6C92.2 -559.6 184.3 -519.3 239.2 -450.9" fill="#465E54"></path></g></svg>