<svg id="visual" viewBox="0 0 900 600" width="900" height="600" xmlns="http://www.w3.org/2000/svg" xmlns:xlink="http://www.w3.org/1999/xlink" version="1.1"><rect x="0" y="0" width="900" height="600" fill="#CEB992"></rect><defs><linearGradient id="grad1_0" x1="33.3%" y1="0%" x2="100%" y2="100%"><stop offset="20%" stop-color="#ceb992" stop-opacity="1"></stop><stop offset="80%" stop-color="#ceb992" stop-opacity="1"></stop></linearGradient></defs><defs><linearGradient id="grad2_0" x1="0%" y1="0%" x2="66.7%" y2="100%"><stop offset="20%" stop-color="#ceb992" stop-opacity="1"></stop><stop offset="80%" stop-color="#ceb992" stop-opacity="1"></stop></linearGradient></defs><g transform="translate(900, 0)"><path d="M0 459.7C-69.1 429 -138.3 398.2 -210 363.7C-281.7 329.3 -356.1 291.1 -398.1 229.9C-440.2 168.6 -449.9 84.3 -459.7 0L0 0Z" fill="#73937E"></path></g><g transform="translate(0, 600)"><path d="M0 -459.7C73.1 -435.9 146.3 -412.1 217.5 -376.7C288.7 -341.4 358.1 -294.6 398.1 -229.9C438.2 -165.1 448.9 -82.6 459.7 0L0 0Z" fill="#73937E"></path></g></svg>