<svg xmlns="http://www.w3.org/2000/svg" xmlns:xlink="http://www.w3.org/1999/xlink" width="500" zoomAndPan="magnify" viewBox="0 0 375 374.999991" height="500" preserveAspectRatio="xMidYMid meet" version="1.0"><defs><g/><clipPath id="834eea9cf2"><path d="M 80 31 L 294 31 L 294 245 L 80 245 Z M 80 31 " clip-rule="nonzero"/></clipPath><clipPath id="360fe68821"><path d="M 187.5 26.394531 L 299.398438 138.292969 L 187.5 250.195312 L 75.597656 138.292969 Z M 187.5 26.394531 " clip-rule="nonzero"/></clipPath><clipPath id="7ca9f03e6a"><path d="M 299.160156 138.054688 L 187.257812 26.152344 L 75.359375 138.054688 L 187.257812 249.953125 Z M 299.160156 138.054688 " clip-rule="nonzero"/></clipPath></defs><g clip-path="url(#834eea9cf2)"><g clip-path="url(#360fe68821)"><g clip-path="url(#7ca9f03e6a)"><path fill="#ffffff" d="M 196.585938 35.480469 L 289.832031 128.726562 C 294.960938 133.855469 294.960938 142.25 289.832031 147.378906 L 196.582031 240.628906 C 191.457031 245.753906 183.0625 245.753906 177.933594 240.628906 L 84.683594 147.378906 C 79.558594 142.25 79.558594 133.855469 84.683594 128.726562 L 177.933594 35.480469 C 183.0625 30.351562 191.457031 30.351562 196.585938 35.480469 Z M 233.882812 100.753906 L 205.910156 72.777344 L 196.582031 82.105469 L 224.558594 110.078125 Z M 271.183594 138.054688 L 243.207031 110.078125 L 224.558594 128.726562 L 205.910156 110.078125 L 196.585938 119.402344 L 224.558594 147.378906 L 243.207031 128.730469 L 261.859375 147.378906 Z M 187.257812 128.730469 L 159.285156 156.703125 L 187.253906 184.671875 L 196.578125 175.347656 L 177.933594 156.703125 L 196.582031 138.054688 Z M 252.535156 156.703125 L 243.207031 147.378906 L 224.558594 166.027344 L 205.910156 147.378906 L 196.585938 156.703125 L 224.558594 184.675781 Z M 159.285156 194.003906 L 187.257812 221.976562 L 215.234375 194.003906 L 205.910156 184.679688 L 187.257812 203.328125 L 168.609375 184.679688 Z M 121.980469 156.707031 L 149.953125 184.683594 L 159.285156 175.351562 L 131.308594 147.378906 Z M 103.335938 138.054688 L 112.660156 147.378906 L 131.308594 128.730469 L 149.957031 147.378906 L 159.285156 138.054688 L 140.632812 119.402344 L 159.285156 100.753906 L 149.957031 91.429688 Z M 159.285156 82.105469 L 177.933594 100.753906 L 159.285156 119.402344 L 168.609375 128.726562 L 196.585938 100.753906 L 177.933594 82.105469 L 196.585938 63.453125 L 187.257812 54.128906 Z M 159.285156 82.105469 " fill-opacity="1" fill-rule="nonzero"/></g></g></g><g fill="#ffffff" fill-opacity="1"><g transform="translate(0.749073, 310.013085)"><g><path d="M 31.3125 -32.734375 L 16.375 1.515625 L 1.421875 -32.734375 L 9.15625 -32.734375 L 16.640625 -14.28125 L 23.671875 -32.734375 Z M 31.3125 -32.734375 "/></g></g></g><g fill="#ffffff" fill-opacity="1"><g transform="translate(33.480992, 310.013085)"><g><path d="M 10.671875 -32.734375 L 10.671875 0 L 4.21875 0 L 4.21875 -32.734375 Z M 10.671875 -32.734375 "/></g></g></g><g fill="#ffffff" fill-opacity="1"><g transform="translate(48.379356, 310.013085)"><g><path d="M 4.21875 -32.734375 L 14.015625 -32.734375 C 18.191406 -32.734375 21.628906 -31.925781 24.328125 -30.3125 C 27.023438 -28.695312 28.988281 -26.609375 30.21875 -24.046875 C 31.457031 -21.484375 32.078125 -18.734375 32.078125 -15.796875 C 32.078125 -12.648438 31.332031 -9.875 29.84375 -7.46875 C 28.363281 -5.070312 26.367188 -3.226562 23.859375 -1.9375 C 21.359375 -0.644531 18.609375 0 15.609375 0 L 4.21875 0 Z M 14.5 -6.234375 C 17.851562 -6.234375 20.507812 -7.09375 22.46875 -8.8125 C 24.425781 -10.53125 25.40625 -13.003906 25.40625 -16.234375 C 25.40625 -18.847656 24.863281 -20.925781 23.78125 -22.46875 C 22.695312 -24.007812 21.4375 -25.078125 20 -25.671875 C 18.5625 -26.265625 17.203125 -26.5625 15.921875 -26.5625 L 10.671875 -26.5625 L 10.671875 -6.234375 Z M 14.5 -6.234375 "/></g></g></g><g fill="#ffffff" fill-opacity="1"><g transform="translate(82.667807, 310.013085)"><g><path d="M 26.5625 -32.734375 L 26.5625 -26.515625 L 10.671875 -26.515625 L 10.671875 -19.53125 L 24.734375 -19.53125 L 24.734375 -13.296875 L 10.671875 -13.296875 L 10.671875 -6.234375 L 27.1875 -6.234375 L 27.1875 0 L 4.21875 0 L 4.21875 -32.734375 Z M 26.5625 -32.734375 "/></g></g></g><g fill="#ffffff" fill-opacity="1"><g transform="translate(112.286622, 310.013085)"><g><path d="M 33.71875 -32.734375 L 33.71875 1.328125 L 33.546875 1.328125 L 10.625 -19.34375 L 10.765625 0 L 4.21875 0 L 4.21875 -34.03125 L 4.5 -34.03125 L 27.359375 -13.03125 L 27.21875 -32.734375 Z M 33.71875 -32.734375 "/></g></g></g><g fill="#ffffff" fill-opacity="1"><g transform="translate(150.221842, 310.013085)"><g><path d="M 24.0625 -32.734375 L 24.0625 -26.515625 L 16.109375 -26.515625 L 16.109375 0 L 9.65625 0 L 9.65625 -26.515625 L 2 -26.515625 L 2 -32.734375 Z M 24.0625 -32.734375 "/></g></g></g><g fill="#ffffff" fill-opacity="1"><g transform="translate(176.282845, 310.013085)"><g/></g></g><g fill="#ffffff" fill-opacity="1"><g transform="translate(190.736482, 310.013085)"><g><path d="M 4.21875 -32.734375 L 14.015625 -32.734375 C 18.191406 -32.734375 21.628906 -31.925781 24.328125 -30.3125 C 27.023438 -28.695312 28.988281 -26.609375 30.21875 -24.046875 C 31.457031 -21.484375 32.078125 -18.734375 32.078125 -15.796875 C 32.078125 -12.648438 31.332031 -9.875 29.84375 -7.46875 C 28.363281 -5.070312 26.367188 -3.226562 23.859375 -1.9375 C 21.359375 -0.644531 18.609375 0 15.609375 0 L 4.21875 0 Z M 14.5 -6.234375 C 17.851562 -6.234375 20.507812 -7.09375 22.46875 -8.8125 C 24.425781 -10.53125 25.40625 -13.003906 25.40625 -16.234375 C 25.40625 -18.847656 24.863281 -20.925781 23.78125 -22.46875 C 22.695312 -24.007812 21.4375 -25.078125 20 -25.671875 C 18.5625 -26.265625 17.203125 -26.5625 15.921875 -26.5625 L 10.671875 -26.5625 L 10.671875 -6.234375 Z M 14.5 -6.234375 "/></g></g></g><g fill="#ffffff" fill-opacity="1"><g transform="translate(225.024934, 310.013085)"><g><path d="M 10.671875 -32.734375 L 10.671875 0 L 4.21875 0 L 4.21875 -32.734375 Z M 10.671875 -32.734375 "/></g></g></g><g fill="#ffffff" fill-opacity="1"><g transform="translate(239.923298, 310.013085)"><g><path d="M 30.78125 -3.296875 C 30.28125 -2.753906 29.382812 -2.191406 28.09375 -1.609375 C 26.800781 -1.035156 25.375 -0.5625 23.8125 -0.1875 C 22.257812 0.175781 20.847656 0.359375 19.578125 0.359375 C 16.109375 0.359375 13.0625 -0.3125 10.4375 -1.65625 C 7.8125 -3.007812 5.785156 -4.878906 4.359375 -7.265625 C 2.929688 -9.660156 2.21875 -12.382812 2.21875 -15.4375 C 2.21875 -19.257812 2.972656 -22.5 4.484375 -25.15625 C 6.003906 -27.8125 8.035156 -29.796875 10.578125 -31.109375 C 13.128906 -32.429688 15.953125 -33.09375 19.046875 -33.09375 C 21.023438 -33.09375 22.890625 -32.867188 24.640625 -32.421875 C 26.390625 -31.984375 27.929688 -31.40625 29.265625 -30.6875 L 27.1875 -24.6875 C 26.320312 -25.164062 25.140625 -25.601562 23.640625 -26 C 22.140625 -26.40625 20.890625 -26.609375 19.890625 -26.609375 C 16.328125 -26.609375 13.601562 -25.71875 11.71875 -23.9375 C 9.832031 -22.15625 8.890625 -19.515625 8.890625 -16.015625 C 8.890625 -13.992188 9.347656 -12.234375 10.265625 -10.734375 C 11.191406 -9.242188 12.476562 -8.097656 14.125 -7.296875 C 15.769531 -6.492188 17.644531 -6.09375 19.75 -6.09375 C 21.769531 -6.09375 23.269531 -6.375 24.25 -6.9375 L 24.25 -10.90625 L 18.59375 -10.90625 L 18.59375 -17.125 L 30.78125 -17.125 Z M 30.78125 -3.296875 "/></g></g></g><g fill="#ffffff" fill-opacity="1"><g transform="translate(273.811502, 310.013085)"><g><path d="M 10.671875 -32.734375 L 10.671875 0 L 4.21875 0 L 4.21875 -32.734375 Z M 10.671875 -32.734375 "/></g></g></g><g fill="#ffffff" fill-opacity="1"><g transform="translate(288.709866, 310.013085)"><g><path d="M 24.0625 -32.734375 L 24.0625 -26.515625 L 16.109375 -26.515625 L 16.109375 0 L 9.65625 0 L 9.65625 -26.515625 L 2 -26.515625 L 2 -32.734375 Z M 24.0625 -32.734375 "/></g></g></g><g fill="#ffffff" fill-opacity="1"><g transform="translate(314.770869, 310.013085)"><g><path d="M 20.421875 -6.40625 L 9.5625 -6.40625 L 6.890625 0 L 0.53125 0 L 15.296875 -34.03125 L 15.65625 -34.03125 L 30.421875 0 L 22.953125 0 Z M 18.28125 -11.828125 L 15.125 -19.796875 L 11.828125 -11.828125 Z M 18.28125 -11.828125 "/></g></g></g><g fill="#ffffff" fill-opacity="1"><g transform="translate(345.723844, 310.013085)"><g><path d="M 10.671875 -32.734375 L 10.671875 -6.234375 L 26.0625 -6.234375 L 26.0625 0 L 4.21875 0 L 4.21875 -32.734375 Z M 10.671875 -32.734375 "/></g></g></g></svg>