<svg xmlns="http://www.w3.org/2000/svg" xmlns:xlink="http://www.w3.org/1999/xlink" width="500" zoomAndPan="magnify" viewBox="0 0 375 374.999991" height="500" preserveAspectRatio="xMidYMid meet" version="1.0"><defs><g/><clipPath id="a3f60805fe"><path d="M 80 31 L 294 31 L 294 245 L 80 245 Z M 80 31 " clip-rule="nonzero"/></clipPath><clipPath id="92b9e7f35a"><path d="M 187.5 26.394531 L 299.398438 138.292969 L 187.5 250.195312 L 75.597656 138.292969 Z M 187.5 26.394531 " clip-rule="nonzero"/></clipPath><clipPath id="4031153281"><path d="M 299.160156 138.054688 L 187.257812 26.152344 L 75.359375 138.054688 L 187.257812 249.953125 Z M 299.160156 138.054688 " clip-rule="nonzero"/></clipPath></defs><g clip-path="url(#a3f60805fe)"><g clip-path="url(#92b9e7f35a)"><g clip-path="url(#4031153281)"><path fill="#ffffff" d="M 196.585938 35.480469 L 289.832031 128.726562 C 294.960938 133.855469 294.960938 142.25 289.832031 147.378906 L 196.582031 240.628906 C 191.457031 245.753906 183.0625 245.753906 177.933594 240.628906 L 84.683594 147.378906 C 79.558594 142.25 79.558594 133.855469 84.683594 128.726562 L 177.933594 35.480469 C 183.0625 30.351562 191.457031 30.351562 196.585938 35.480469 Z M 233.882812 100.753906 L 205.910156 72.777344 L 196.582031 82.105469 L 224.558594 110.078125 Z M 271.183594 138.054688 L 243.207031 110.078125 L 224.558594 128.726562 L 205.910156 110.078125 L 196.585938 119.402344 L 224.558594 147.378906 L 243.207031 128.730469 L 261.859375 147.378906 Z M 187.257812 128.730469 L 159.285156 156.703125 L 187.253906 184.671875 L 196.578125 175.347656 L 177.933594 156.703125 L 196.582031 138.054688 Z M 252.535156 156.703125 L 243.207031 147.378906 L 224.558594 166.027344 L 205.910156 147.378906 L 196.585938 156.703125 L 224.558594 184.675781 Z M 159.285156 194.003906 L 187.257812 221.976562 L 215.234375 194.003906 L 205.910156 184.679688 L 187.257812 203.328125 L 168.609375 184.679688 Z M 121.980469 156.707031 L 149.953125 184.683594 L 159.285156 175.351562 L 131.308594 147.378906 Z M 103.335938 138.054688 L 112.660156 147.378906 L 131.308594 128.730469 L 149.957031 147.378906 L 159.285156 138.054688 L 140.632812 119.402344 L 159.285156 100.753906 L 149.957031 91.429688 Z M 159.285156 82.105469 L 177.933594 100.753906 L 159.285156 119.402344 L 168.609375 128.726562 L 196.585938 100.753906 L 177.933594 82.105469 L 196.585938 63.453125 L 187.257812 54.128906 Z M 159.285156 82.105469 " fill-opacity="1" fill-rule="nonzero"/></g></g></g><g fill="#ffffff" fill-opacity="1"><g transform="translate(46.201489, 303.993621)"><g><path d="M 23.6875 -24.765625 L 12.390625 1.140625 L 1.078125 -24.765625 L 6.9375 -24.765625 L 12.59375 -10.796875 L 17.90625 -24.765625 Z M 23.6875 -24.765625 "/></g></g></g><g fill="#ffffff" fill-opacity="1"><g transform="translate(70.967401, 303.993621)"><g><path d="M 8.078125 -24.765625 L 8.078125 0 L 3.203125 0 L 3.203125 -24.765625 Z M 8.078125 -24.765625 "/></g></g></g><g fill="#ffffff" fill-opacity="1"><g transform="translate(82.239931, 303.993621)"><g><path d="M 3.203125 -24.765625 L 10.609375 -24.765625 C 13.765625 -24.765625 16.363281 -24.15625 18.40625 -22.9375 C 20.445312 -21.71875 21.929688 -20.132812 22.859375 -18.1875 C 23.796875 -16.25 24.265625 -14.171875 24.265625 -11.953125 C 24.265625 -9.566406 23.703125 -7.460938 22.578125 -5.640625 C 21.460938 -3.828125 19.957031 -2.429688 18.0625 -1.453125 C 16.164062 -0.484375 14.082031 0 11.8125 0 L 3.203125 0 Z M 10.96875 -4.71875 C 13.507812 -4.71875 15.519531 -5.363281 17 -6.65625 C 18.476562 -7.957031 19.21875 -9.832031 19.21875 -12.28125 C 19.21875 -14.257812 18.804688 -15.832031 17.984375 -17 C 17.171875 -18.164062 16.21875 -18.972656 15.125 -19.421875 C 14.039062 -19.867188 13.015625 -20.09375 12.046875 -20.09375 L 8.078125 -20.09375 L 8.078125 -4.71875 Z M 10.96875 -4.71875 "/></g></g></g><g fill="#ffffff" fill-opacity="1"><g transform="translate(108.18356, 303.993621)"><g><path d="M 20.09375 -24.765625 L 20.09375 -20.0625 L 8.078125 -20.0625 L 8.078125 -14.78125 L 18.71875 -14.78125 L 18.71875 -10.0625 L 8.078125 -10.0625 L 8.078125 -4.71875 L 20.5625 -4.71875 L 20.5625 0 L 3.203125 0 L 3.203125 -24.765625 Z M 20.09375 -24.765625 "/></g></g></g><g fill="#ffffff" fill-opacity="1"><g transform="translate(130.594007, 303.993621)"><g><path d="M 25.515625 -24.765625 L 25.515625 1.015625 L 25.375 1.015625 L 8.046875 -14.640625 L 8.140625 0 L 3.203125 0 L 3.203125 -25.75 L 3.40625 -25.75 L 20.703125 -9.859375 L 20.59375 -24.765625 Z M 25.515625 -24.765625 "/></g></g></g><g fill="#ffffff" fill-opacity="1"><g transform="translate(159.296885, 303.993621)"><g><path d="M 18.203125 -24.765625 L 18.203125 -20.0625 L 12.1875 -20.0625 L 12.1875 0 L 7.296875 0 L 7.296875 -20.0625 L 1.515625 -20.0625 L 1.515625 -24.765625 Z M 18.203125 -24.765625 "/></g></g></g><g fill="#ffffff" fill-opacity="1"><g transform="translate(179.015389, 303.993621)"><g/></g></g><g fill="#ffffff" fill-opacity="1"><g transform="translate(189.951427, 303.993621)"><g><path d="M 3.203125 -24.765625 L 10.609375 -24.765625 C 13.765625 -24.765625 16.363281 -24.15625 18.40625 -22.9375 C 20.445312 -21.71875 21.929688 -20.132812 22.859375 -18.1875 C 23.796875 -16.25 24.265625 -14.171875 24.265625 -11.953125 C 24.265625 -9.566406 23.703125 -7.460938 22.578125 -5.640625 C 21.460938 -3.828125 19.957031 -2.429688 18.0625 -1.453125 C 16.164062 -0.484375 14.082031 0 11.8125 0 L 3.203125 0 Z M 10.96875 -4.71875 C 13.507812 -4.71875 15.519531 -5.363281 17 -6.65625 C 18.476562 -7.957031 19.21875 -9.832031 19.21875 -12.28125 C 19.21875 -14.257812 18.804688 -15.832031 17.984375 -17 C 17.171875 -18.164062 16.21875 -18.972656 15.125 -19.421875 C 14.039062 -19.867188 13.015625 -20.09375 12.046875 -20.09375 L 8.078125 -20.09375 L 8.078125 -4.71875 Z M 10.96875 -4.71875 "/></g></g></g><g fill="#ffffff" fill-opacity="1"><g transform="translate(215.895056, 303.993621)"><g><path d="M 8.078125 -24.765625 L 8.078125 0 L 3.203125 0 L 3.203125 -24.765625 Z M 8.078125 -24.765625 "/></g></g></g><g fill="#ffffff" fill-opacity="1"><g transform="translate(227.167587, 303.993621)"><g><path d="M 23.296875 -2.484375 C 22.910156 -2.085938 22.226562 -1.671875 21.25 -1.234375 C 20.28125 -0.796875 19.203125 -0.4375 18.015625 -0.15625 C 16.835938 0.125 15.769531 0.265625 14.8125 0.265625 C 12.1875 0.265625 9.878906 -0.242188 7.890625 -1.265625 C 5.898438 -2.285156 4.367188 -3.695312 3.296875 -5.5 C 2.222656 -7.3125 1.6875 -9.367188 1.6875 -11.671875 C 1.6875 -14.566406 2.253906 -17.019531 3.390625 -19.03125 C 4.535156 -21.039062 6.070312 -22.546875 8 -23.546875 C 9.9375 -24.546875 12.070312 -25.046875 14.40625 -25.046875 C 15.90625 -25.046875 17.316406 -24.875 18.640625 -24.53125 C 19.960938 -24.195312 21.128906 -23.757812 22.140625 -23.21875 L 20.5625 -18.671875 C 19.914062 -19.035156 19.023438 -19.367188 17.890625 -19.671875 C 16.753906 -19.972656 15.804688 -20.125 15.046875 -20.125 C 12.347656 -20.125 10.285156 -19.453125 8.859375 -18.109375 C 7.441406 -16.765625 6.734375 -14.765625 6.734375 -12.109375 C 6.734375 -10.585938 7.078125 -9.257812 7.765625 -8.125 C 8.460938 -6.988281 9.429688 -6.117188 10.671875 -5.515625 C 11.921875 -4.910156 13.34375 -4.609375 14.9375 -4.609375 C 16.46875 -4.609375 17.601562 -4.820312 18.34375 -5.25 L 18.34375 -8.25 L 14.0625 -8.25 L 14.0625 -12.953125 L 23.296875 -12.953125 Z M 23.296875 -2.484375 "/></g></g></g><g fill="#ffffff" fill-opacity="1"><g transform="translate(252.808376, 303.993621)"><g><path d="M 8.078125 -24.765625 L 8.078125 0 L 3.203125 0 L 3.203125 -24.765625 Z M 8.078125 -24.765625 "/></g></g></g><g fill="#ffffff" fill-opacity="1"><g transform="translate(264.080907, 303.993621)"><g><path d="M 18.203125 -24.765625 L 18.203125 -20.0625 L 12.1875 -20.0625 L 12.1875 0 L 7.296875 0 L 7.296875 -20.0625 L 1.515625 -20.0625 L 1.515625 -24.765625 Z M 18.203125 -24.765625 "/></g></g></g><g fill="#ffffff" fill-opacity="1"><g transform="translate(283.799411, 303.993621)"><g><path d="M 15.453125 -4.84375 L 7.234375 -4.84375 L 5.21875 0 L 0.40625 0 L 11.578125 -25.75 L 11.84375 -25.75 L 23.015625 0 L 17.359375 0 Z M 13.828125 -8.953125 L 11.4375 -14.984375 L 8.953125 -8.953125 Z M 13.828125 -8.953125 "/></g></g></g><g fill="#ffffff" fill-opacity="1"><g transform="translate(307.219323, 303.993621)"><g><path d="M 8.078125 -24.765625 L 8.078125 -4.71875 L 19.71875 -4.71875 L 19.71875 0 L 3.203125 0 L 3.203125 -24.765625 Z M 8.078125 -24.765625 "/></g></g></g></svg>