<svg id="visual" viewBox="0 0 900 600" width="900" height="600" xmlns="http://www.w3.org/2000/svg" xmlns:xlink="http://www.w3.org/1999/xlink" version="1.1"><rect x="0" y="0" width="900" height="600" fill="#CEB992"></rect><defs><linearGradient id="grad1_0" x1="33.3%" y1="0%" x2="100%" y2="100%"><stop offset="20%" stop-color="#ceb992" stop-opacity="1"></stop><stop offset="80%" stop-color="#ceb992" stop-opacity="1"></stop></linearGradient></defs><defs><linearGradient id="grad2_0" x1="0%" y1="0%" x2="66.7%" y2="100%"><stop offset="20%" stop-color="#ceb992" stop-opacity="1"></stop><stop offset="80%" stop-color="#ceb992" stop-opacity="1"></stop></linearGradient></defs><g transform="translate(900, 0)"><path d="M0 486.7C-61.5 434 -123.1 381.2 -200.5 347.3C-277.9 313.3 -371.2 298.1 -421.5 243.4C-471.9 188.6 -479.3 94.3 -486.7 0L0 0Z" fill="#73937E"></path></g><g transform="translate(0, 600)"><path d="M0 -486.7C61.5 -434 123.1 -381.2 200.5 -347.3C277.9 -313.3 371.2 -298.1 421.5 -243.4C471.9 -188.6 479.3 -94.3 486.7 0L0 0Z" fill="#73937E"></path></g></svg>