<svg xmlns="http://www.w3.org/2000/svg" xmlns:xlink="http://www.w3.org/1999/xlink" width="500" zoomAndPan="magnify" viewBox="0 0 375 374.999991" height="500" preserveAspectRatio="xMidYMid meet" version="1.0"><defs><g/><clipPath id="a709c0e1d2"><path d="M 135 100 L 240 100 L 240 205 L 135 205 Z M 135 100 " clip-rule="nonzero"/></clipPath><clipPath id="b7215b5144"><path d="M 187.5 97.945312 L 242.121094 152.570312 L 187.5 207.195312 L 132.875 152.570312 Z M 187.5 97.945312 " clip-rule="nonzero"/></clipPath><clipPath id="9bffc53fe5"><path d="M 241.972656 152.421875 L 187.351562 97.796875 L 132.726562 152.421875 L 187.351562 207.042969 Z M 241.972656 152.421875 " clip-rule="nonzero"/></clipPath></defs><rect x="-37.5" width="450" fill="#ffffff" y="-37.499999" height="449.999989" fill-opacity="1"/><rect x="-37.5" width="450" fill="#ffffff" y="-37.499999" height="449.999989" fill-opacity="1"/><rect x="-37.5" width="450" fill="#000000" y="-37.499999" height="449.999989" fill-opacity="1"/><g clip-path="url(#a709c0e1d2)"><g clip-path="url(#b7215b5144)"><g clip-path="url(#9bffc53fe5)"><path fill="#737373" d="M 191.902344 102.347656 L 237.421875 147.867188 C 239.925781 150.371094 239.925781 154.46875 237.421875 156.972656 L 191.902344 202.492188 C 189.398438 204.996094 185.300781 204.996094 182.796875 202.492188 L 137.277344 156.972656 C 134.773438 154.46875 134.773438 150.371094 137.277344 147.867188 L 182.796875 102.347656 C 185.300781 99.847656 189.398438 99.847656 191.902344 102.347656 Z M 210.109375 134.210938 L 196.453125 120.554688 L 191.902344 125.109375 L 205.558594 138.765625 Z M 228.316406 152.421875 L 214.660156 138.765625 L 205.558594 147.867188 L 196.453125 138.765625 L 191.902344 143.316406 L 205.558594 156.972656 L 214.660156 147.871094 L 223.765625 156.972656 Z M 187.351562 147.871094 L 173.695312 161.523438 L 187.347656 175.179688 L 191.898438 170.625 L 182.796875 161.523438 L 191.902344 152.421875 Z M 219.214844 161.523438 L 214.660156 156.972656 L 205.558594 166.074219 L 196.453125 156.972656 L 191.902344 161.523438 L 205.558594 175.179688 Z M 173.695312 179.734375 L 187.351562 193.390625 L 201.003906 179.734375 L 196.453125 175.179688 L 187.351562 184.285156 L 178.246094 175.179688 Z M 155.484375 161.527344 L 169.140625 175.183594 L 173.695312 170.628906 L 160.039062 156.972656 Z M 146.382812 152.421875 L 150.933594 156.972656 L 160.039062 147.871094 L 169.140625 156.972656 L 173.695312 152.421875 L 164.589844 143.316406 L 173.695312 134.214844 L 169.140625 129.660156 Z M 173.695312 125.109375 L 182.796875 134.210938 L 173.695312 143.316406 L 178.246094 147.867188 L 191.902344 134.210938 L 182.796875 125.109375 L 191.902344 116.003906 L 187.351562 111.453125 Z M 173.695312 125.109375 " fill-opacity="1" fill-rule="nonzero"/></g></g></g><g fill="#ffffff" fill-opacity="1"><g transform="translate(75.352876, 246.313738)"><g><path d="M 18.8125 -19.671875 L 9.828125 0.90625 L 0.859375 -19.671875 L 5.5 -19.671875 L 10 -8.578125 L 14.21875 -19.671875 Z M 18.8125 -19.671875 "/></g></g></g><g fill="#ffffff" fill-opacity="1"><g transform="translate(95.009316, 246.313738)"><g><path d="M 6.40625 -19.671875 L 6.40625 0 L 2.53125 0 L 2.53125 -19.671875 Z M 6.40625 -19.671875 "/></g></g></g><g fill="#ffffff" fill-opacity="1"><g transform="translate(103.956203, 246.313738)"><g><path d="M 2.53125 -19.671875 L 8.421875 -19.671875 C 10.929688 -19.671875 12.992188 -19.179688 14.609375 -18.203125 C 16.234375 -17.234375 17.414062 -15.976562 18.15625 -14.4375 C 18.894531 -12.894531 19.265625 -11.242188 19.265625 -9.484375 C 19.265625 -7.597656 18.816406 -5.929688 17.921875 -4.484375 C 17.035156 -3.046875 15.835938 -1.9375 14.328125 -1.15625 C 12.828125 -0.382812 11.175781 0 9.375 0 L 2.53125 0 Z M 8.703125 -3.734375 C 10.722656 -3.734375 12.316406 -4.25 13.484375 -5.28125 C 14.660156 -6.320312 15.25 -7.8125 15.25 -9.75 C 15.25 -11.320312 14.925781 -12.566406 14.28125 -13.484375 C 13.632812 -14.410156 12.878906 -15.050781 12.015625 -15.40625 C 11.148438 -15.769531 10.332031 -15.953125 9.5625 -15.953125 L 6.40625 -15.953125 L 6.40625 -3.734375 Z M 8.703125 -3.734375 "/></g></g></g><g fill="#ffffff" fill-opacity="1"><g transform="translate(124.547384, 246.313738)"><g><path d="M 15.953125 -19.671875 L 15.953125 -15.921875 L 6.40625 -15.921875 L 6.40625 -11.734375 L 14.859375 -11.734375 L 14.859375 -7.984375 L 6.40625 -7.984375 L 6.40625 -3.734375 L 16.328125 -3.734375 L 16.328125 0 L 2.53125 0 L 2.53125 -19.671875 Z M 15.953125 -19.671875 "/></g></g></g><g fill="#ffffff" fill-opacity="1"><g transform="translate(142.334317, 246.313738)"><g><path d="M 20.25 -19.671875 L 20.25 0.796875 L 20.140625 0.796875 L 6.390625 -11.625 L 6.46875 0 L 2.53125 0 L 2.53125 -20.4375 L 2.703125 -20.4375 L 16.4375 -7.828125 L 16.359375 -19.671875 Z M 20.25 -19.671875 "/></g></g></g><g fill="#ffffff" fill-opacity="1"><g transform="translate(165.115486, 246.313738)"><g><path d="M 14.453125 -19.671875 L 14.453125 -15.921875 L 9.671875 -15.921875 L 9.671875 0 L 5.796875 0 L 5.796875 -15.921875 L 1.203125 -15.921875 L 1.203125 -19.671875 Z M 14.453125 -19.671875 "/></g></g></g><g fill="#ffffff" fill-opacity="1"><g transform="translate(180.765852, 246.313738)"><g/></g></g><g fill="#ffffff" fill-opacity="1"><g transform="translate(189.445669, 246.313738)"><g><path d="M 2.53125 -19.671875 L 8.421875 -19.671875 C 10.929688 -19.671875 12.992188 -19.179688 14.609375 -18.203125 C 16.234375 -17.234375 17.414062 -15.976562 18.15625 -14.4375 C 18.894531 -12.894531 19.265625 -11.242188 19.265625 -9.484375 C 19.265625 -7.597656 18.816406 -5.929688 17.921875 -4.484375 C 17.035156 -3.046875 15.835938 -1.9375 14.328125 -1.15625 C 12.828125 -0.382812 11.175781 0 9.375 0 L 2.53125 0 Z M 8.703125 -3.734375 C 10.722656 -3.734375 12.316406 -4.25 13.484375 -5.28125 C 14.660156 -6.320312 15.25 -7.8125 15.25 -9.75 C 15.25 -11.320312 14.925781 -12.566406 14.28125 -13.484375 C 13.632812 -14.410156 12.878906 -15.050781 12.015625 -15.40625 C 11.148438 -15.769531 10.332031 -15.953125 9.5625 -15.953125 L 6.40625 -15.953125 L 6.40625 -3.734375 Z M 8.703125 -3.734375 "/></g></g></g><g fill="#ffffff" fill-opacity="1"><g transform="translate(210.03685, 246.313738)"><g><path d="M 6.40625 -19.671875 L 6.40625 0 L 2.53125 0 L 2.53125 -19.671875 Z M 6.40625 -19.671875 "/></g></g></g><g fill="#ffffff" fill-opacity="1"><g transform="translate(218.983737, 246.313738)"><g><path d="M 18.484375 -1.984375 C 18.179688 -1.660156 17.640625 -1.320312 16.859375 -0.96875 C 16.085938 -0.625 15.234375 -0.335938 14.296875 -0.109375 C 13.367188 0.109375 12.519531 0.21875 11.75 0.21875 C 9.664062 0.21875 7.835938 -0.1875 6.265625 -1 C 4.691406 -1.8125 3.476562 -2.929688 2.625 -4.359375 C 1.769531 -5.796875 1.34375 -7.429688 1.34375 -9.265625 C 1.34375 -11.566406 1.796875 -13.515625 2.703125 -15.109375 C 3.609375 -16.703125 4.828125 -17.894531 6.359375 -18.6875 C 7.890625 -19.476562 9.582031 -19.875 11.4375 -19.875 C 12.625 -19.875 13.742188 -19.738281 14.796875 -19.46875 C 15.847656 -19.207031 16.773438 -18.863281 17.578125 -18.4375 L 16.328125 -14.828125 C 15.804688 -15.109375 15.097656 -15.367188 14.203125 -15.609375 C 13.304688 -15.859375 12.550781 -15.984375 11.9375 -15.984375 C 9.800781 -15.984375 8.164062 -15.445312 7.03125 -14.375 C 5.90625 -13.300781 5.34375 -11.71875 5.34375 -9.625 C 5.34375 -8.40625 5.617188 -7.347656 6.171875 -6.453125 C 6.722656 -5.554688 7.492188 -4.863281 8.484375 -4.375 C 9.472656 -3.894531 10.597656 -3.65625 11.859375 -3.65625 C 13.078125 -3.65625 13.976562 -3.828125 14.5625 -4.171875 L 14.5625 -6.546875 L 11.171875 -6.546875 L 11.171875 -10.28125 L 18.484375 -10.28125 Z M 18.484375 -1.984375 "/></g></g></g><g fill="#ffffff" fill-opacity="1"><g transform="translate(239.334559, 246.313738)"><g><path d="M 6.40625 -19.671875 L 6.40625 0 L 2.53125 0 L 2.53125 -19.671875 Z M 6.40625 -19.671875 "/></g></g></g><g fill="#ffffff" fill-opacity="1"><g transform="translate(248.281446, 246.313738)"><g><path d="M 14.453125 -19.671875 L 14.453125 -15.921875 L 9.671875 -15.921875 L 9.671875 0 L 5.796875 0 L 5.796875 -15.921875 L 1.203125 -15.921875 L 1.203125 -19.671875 Z M 14.453125 -19.671875 "/></g></g></g><g fill="#ffffff" fill-opacity="1"><g transform="translate(263.931813, 246.313738)"><g><path d="M 12.265625 -3.84375 L 5.75 -3.84375 L 4.140625 0 L 0.328125 0 L 9.1875 -20.4375 L 9.40625 -20.4375 L 18.28125 0 L 13.78125 0 Z M 10.984375 -7.109375 L 9.078125 -11.890625 L 7.109375 -7.109375 Z M 10.984375 -7.109375 "/></g></g></g><g fill="#ffffff" fill-opacity="1"><g transform="translate(282.519947, 246.313738)"><g><path d="M 6.40625 -19.671875 L 6.40625 -3.734375 L 15.65625 -3.734375 L 15.65625 0 L 2.53125 0 L 2.53125 -19.671875 Z M 6.40625 -19.671875 "/></g></g></g></svg>