<svg xmlns="http://www.w3.org/2000/svg" xmlns:xlink="http://www.w3.org/1999/xlink" width="500" zoomAndPan="magnify" viewBox="0 0 375 374.999991" height="500" preserveAspectRatio="xMidYMid meet" version="1.0"><defs><g/><clipPath id="4d4317c881"><path d="M 135 100 L 240 100 L 240 205 L 135 205 Z M 135 100 " clip-rule="nonzero"/></clipPath><clipPath id="a83a95f320"><path d="M 187.5 97.945312 L 242.121094 152.570312 L 187.5 207.195312 L 132.875 152.570312 Z M 187.5 97.945312 " clip-rule="nonzero"/></clipPath><clipPath id="54b868ac6d"><path d="M 241.972656 152.421875 L 187.351562 97.796875 L 132.726562 152.421875 L 187.351562 207.042969 Z M 241.972656 152.421875 " clip-rule="nonzero"/></clipPath><clipPath id="138a7f04e2"><path d="M 241.972656 152.421875 L 187.351562 97.796875 L 132.726562 152.421875 L 187.351562 207.042969 Z M 241.972656 152.421875 " clip-rule="nonzero"/></clipPath></defs><rect x="-37.5" width="450" fill="#ffffff" y="-37.499999" height="449.999989" fill-opacity="1"/><rect x="-37.5" width="450" fill="#ffffff" y="-37.499999" height="449.999989" fill-opacity="1"/><rect x="-37.5" width="450" fill="#000000" y="-37.499999" height="449.999989" fill-opacity="1"/><g clip-path="url(#4d4317c881)"><g clip-path="url(#a83a95f320)"><g clip-path="url(#54b868ac6d)"><g clip-path="url(#138a7f04e2)"><path fill="#ffffff" d="M 191.902344 102.347656 L 237.421875 147.867188 C 239.925781 150.371094 239.925781 154.46875 237.421875 156.972656 L 191.902344 202.492188 C 189.398438 204.996094 185.300781 204.996094 182.796875 202.492188 L 137.277344 156.972656 C 134.773438 154.46875 134.773438 150.371094 137.277344 147.867188 L 182.796875 102.347656 C 185.300781 99.847656 189.398438 99.847656 191.902344 102.347656 Z M 210.109375 134.210938 L 196.453125 120.554688 L 191.902344 125.109375 L 205.558594 138.765625 Z M 228.316406 152.421875 L 214.660156 138.765625 L 205.558594 147.867188 L 196.453125 138.765625 L 191.902344 143.316406 L 205.558594 156.972656 L 214.660156 147.871094 L 223.765625 156.972656 Z M 187.351562 147.871094 L 173.695312 161.523438 L 187.347656 175.179688 L 191.898438 170.625 L 182.796875 161.523438 L 191.902344 152.421875 Z M 219.214844 161.523438 L 214.660156 156.972656 L 205.558594 166.074219 L 196.453125 156.972656 L 191.902344 161.523438 L 205.558594 175.179688 Z M 173.695312 179.734375 L 187.351562 193.390625 L 201.003906 179.734375 L 196.453125 175.179688 L 187.351562 184.285156 L 178.246094 175.179688 Z M 155.484375 161.527344 L 169.140625 175.183594 L 173.695312 170.628906 L 160.039062 156.972656 Z M 146.382812 152.421875 L 150.933594 156.972656 L 160.039062 147.871094 L 169.140625 156.972656 L 173.695312 152.421875 L 164.589844 143.316406 L 173.695312 134.214844 L 169.140625 129.660156 Z M 173.695312 125.109375 L 182.796875 134.210938 L 173.695312 143.316406 L 178.246094 147.867188 L 191.902344 134.210938 L 182.796875 125.109375 L 191.902344 116.003906 L 187.351562 111.453125 Z M 173.695312 125.109375 " fill-opacity="1" fill-rule="nonzero"/></g></g></g></g><g fill="#ffffff" fill-opacity="1"><g transform="translate(75.352876, 246.313738)"><g><path d="M 18.8125 -19.671875 L 9.828125 0.90625 L 0.859375 -19.671875 L 5.5 -19.671875 L 10 -8.578125 L 14.21875 -19.671875 Z M 18.8125 -19.671875 "/></g></g></g><g fill="#ffffff" fill-opacity="1"><g transform="translate(95.009316, 246.313738)"><g><path d="M 6.40625 -19.671875 L 6.40625 0 L 2.53125 0 L 2.53125 -19.671875 Z M 6.40625 -19.671875 "/></g></g></g><g fill="#ffffff" fill-opacity="1"><g transform="translate(103.956203, 246.313738)"><g><path d="M 2.53125 -19.671875 L 8.421875 -19.671875 C 10.929688 -19.671875 12.992188 -19.179688 14.609375 -18.203125 C 16.234375 -17.234375 17.414062 -15.976562 18.15625 -14.4375 C 18.894531 -12.894531 19.265625 -11.242188 19.265625 -9.484375 C 19.265625 -7.597656 18.816406 -5.929688 17.921875 -4.484375 C 17.035156 -3.046875 15.835938 -1.9375 14.328125 -1.15625 C 12.828125 -0.382812 11.175781 0 9.375 0 L 2.53125 0 Z M 8.703125 -3.734375 C 10.722656 -3.734375 12.316406 -4.25 13.484375 -5.28125 C 14.660156 -6.320312 15.25 -7.8125 15.25 -9.75 C 15.25 -11.320312 14.925781 -12.566406 14.28125 -13.484375 C 13.632812 -14.410156 12.878906 -15.050781 12.015625 -15.40625 C 11.148438 -15.769531 10.332031 -15.953125 9.5625 -15.953125 L 6.40625 -15.953125 L 6.40625 -3.734375 Z M 8.703125 -3.734375 "/></g></g></g><g fill="#ffffff" fill-opacity="1"><g transform="translate(124.547384, 246.313738)"><g><path d="M 15.953125 -19.671875 L 15.953125 -15.921875 L 6.40625 -15.921875 L 6.40625 -11.734375 L 14.859375 -11.734375 L 14.859375 -7.984375 L 6.40625 -7.984375 L 6.40625 -3.734375 L 16.328125 -3.734375 L 16.328125 0 L 2.53125 0 L 2.53125 -19.671875 Z M 15.953125 -19.671875 "/></g></g></g><g fill="#ffffff" fill-opacity="1"><g transform="translate(142.334317, 246.313738)"><g><path d="M 20.25 -19.671875 L 20.25 0.796875 L 20.140625 0.796875 L 6.390625 -11.625 L 6.46875 0 L 2.53125 0 L 2.53125 -20.4375 L 2.703125 -20.4375 L 16.4375 -7.828125 L 16.359375 -19.671875 Z M 20.25 -19.671875 "/></g></g></g><g fill="#ffffff" fill-opacity="1"><g transform="translate(165.115486, 246.313738)"><g><path d="M 14.453125 -19.671875 L 14.453125 -15.921875 L 9.671875 -15.921875 L 9.671875 0 L 5.796875 0 L 5.796875 -15.921875 L 1.203125 -15.921875 L 1.203125 -19.671875 Z M 14.453125 -19.671875 "/></g></g></g><g fill="#ffffff" fill-opacity="1"><g transform="translate(180.765852, 246.313738)"><g/></g></g><g fill="#ffffff" fill-opacity="1"><g transform="translate(189.445669, 246.313738)"><g><path d="M 2.53125 -19.671875 L 8.421875 -19.671875 C 10.929688 -19.671875 12.992188 -19.179688 14.609375 -18.203125 C 16.234375 -17.234375 17.414062 -15.976562 18.15625 -14.4375 C 18.894531 -12.894531 19.265625 -11.242188 19.265625 -9.484375 C 19.265625 -7.597656 18.816406 -5.929688 17.921875 -4.484375 C 17.035156 -3.046875 15.835938 -1.9375 14.328125 -1.15625 C 12.828125 -0.382812 11.175781 0 9.375 0 L 2.53125 0 Z M 8.703125 -3.734375 C 10.722656 -3.734375 12.316406 -4.25 13.484375 -5.28125 C 14.660156 -6.320312 15.25 -7.8125 15.25 -9.75 C 15.25 -11.320312 14.925781 -12.566406 14.28125 -13.484375 C 13.632812 -14.410156 12.878906 -15.050781 12.015625 -15.40625 C 11.148438 -15.769531 10.332031 -15.953125 9.5625 -15.953125 L 6.40625 -15.953125 L 6.40625 -3.734375 Z M 8.703125 -3.734375 "/></g></g></g><g fill="#ffffff" fill-opacity="1"><g transform="translate(210.03685, 246.313738)"><g><path d="M 6.40625 -19.671875 L 6.40625 0 L 2.53125 0 L 2.53125 -19.671875 Z M 6.40625 -19.671875 "/></g></g></g><g fill="#ffffff" fill-opacity="1"><g transform="translate(218.983737, 246.313738)"><g><path d="M 18.484375 -1.984375 C 18.179688 -1.660156 17.640625 -1.320312 16.859375 -0.96875 C 16.085938 -0.625 15.234375 -0.335938 14.296875 -0.109375 C 13.367188 0.109375 12.519531 0.21875 11.75 0.21875 C 9.664062 0.21875 7.835938 -0.1875 6.265625 -1 C 4.691406 -1.8125 3.476562 -2.929688 2.625 -4.359375 C 1.769531 -5.796875 1.34375 -7.429688 1.34375 -9.265625 C 1.34375 -11.566406 1.796875 -13.515625 2.703125 -15.109375 C 3.609375 -16.703125 4.828125 -17.894531 6.359375 -18.6875 C 7.890625 -19.476562 9.582031 -19.875 11.4375 -19.875 C 12.625 -19.875 13.742188 -19.738281 14.796875 -19.46875 C 15.847656 -19.207031 16.773438 -18.863281 17.578125 -18.4375 L 16.328125 -14.828125 C 15.804688 -15.109375 15.097656 -15.367188 14.203125 -15.609375 C 13.304688 -15.859375 12.550781 -15.984375 11.9375 -15.984375 C 9.800781 -15.984375 8.164062 -15.445312 7.03125 -14.375 C 5.90625 -13.300781 5.34375 -11.71875 5.34375 -9.625 C 5.34375 -8.40625 5.617188 -7.347656 6.171875 -6.453125 C 6.722656 -5.554688 7.492188 -4.863281 8.484375 -4.375 C 9.472656 -3.894531 10.597656 -3.65625 11.859375 -3.65625 C 13.078125 -3.65625 13.976562 -3.828125 14.5625 -4.171875 L 14.5625 -6.546875 L 11.171875 -6.546875 L 11.171875 -10.28125 L 18.484375 -10.28125 Z M 18.484375 -1.984375 "/></g></g></g><g fill="#ffffff" fill-opacity="1"><g transform="translate(239.334559, 246.313738)"><g><path d="M 6.40625 -19.671875 L 6.40625 0 L 2.53125 0 L 2.53125 -19.671875 Z M 6.40625 -19.671875 "/></g></g></g><g fill="#ffffff" fill-opacity="1"><g transform="translate(248.281446, 246.313738)"><g><path d="M 14.453125 -19.671875 L 14.453125 -15.921875 L 9.671875 -15.921875 L 9.671875 0 L 5.796875 0 L 5.796875 -15.921875 L 1.203125 -15.921875 L 1.203125 -19.671875 Z M 14.453125 -19.671875 "/></g></g></g><g fill="#ffffff" fill-opacity="1"><g transform="translate(263.931813, 246.313738)"><g><path d="M 12.265625 -3.84375 L 5.75 -3.84375 L 4.140625 0 L 0.328125 0 L 9.1875 -20.4375 L 9.40625 -20.4375 L 18.28125 0 L 13.78125 0 Z M 10.984375 -7.109375 L 9.078125 -11.890625 L 7.109375 -7.109375 Z M 10.984375 -7.109375 "/></g></g></g><g fill="#ffffff" fill-opacity="1"><g transform="translate(282.519947, 246.313738)"><g><path d="M 6.40625 -19.671875 L 6.40625 -3.734375 L 15.65625 -3.734375 L 15.65625 0 L 2.53125 0 L 2.53125 -19.671875 Z M 6.40625 -19.671875 "/></g></g></g><g fill="#ffffff" fill-opacity="1"><g transform="translate(122.813811, 267.19047)"><g><path d="M 6.390625 -7.9375 C 6.035156 -8.125 5.660156 -8.273438 5.265625 -8.390625 C 4.878906 -8.503906 4.515625 -8.5625 4.171875 -8.5625 C 3.640625 -8.5625 3.21875 -8.441406 2.90625 -8.203125 C 2.601562 -7.972656 2.453125 -7.648438 2.453125 -7.234375 C 2.453125 -6.835938 2.632812 -6.507812 3 -6.25 C 3.363281 -6 3.878906 -5.75 4.546875 -5.5 C 5.046875 -5.320312 5.460938 -5.128906 5.796875 -4.921875 C 6.140625 -4.710938 6.425781 -4.421875 6.65625 -4.046875 C 6.882812 -3.679688 7 -3.210938 7 -2.640625 C 7 -2.128906 6.867188 -1.660156 6.609375 -1.234375 C 6.347656 -0.816406 5.976562 -0.488281 5.5 -0.25 C 5.03125 -0.0078125 4.472656 0.109375 3.828125 0.109375 C 3.234375 0.109375 2.660156 0.015625 2.109375 -0.171875 C 1.554688 -0.367188 1.070312 -0.613281 0.65625 -0.90625 L 1.234375 -1.9375 C 1.554688 -1.6875 1.945312 -1.472656 2.40625 -1.296875 C 2.875 -1.128906 3.3125 -1.046875 3.71875 -1.046875 C 4.226562 -1.046875 4.675781 -1.175781 5.0625 -1.4375 C 5.457031 -1.707031 5.65625 -2.101562 5.65625 -2.625 C 5.65625 -3.070312 5.488281 -3.425781 5.15625 -3.6875 C 4.832031 -3.957031 4.378906 -4.207031 3.796875 -4.4375 C 3.253906 -4.644531 2.800781 -4.84375 2.4375 -5.03125 C 2.070312 -5.226562 1.757812 -5.5 1.5 -5.84375 C 1.25 -6.1875 1.125 -6.617188 1.125 -7.140625 C 1.125 -7.890625 1.390625 -8.5 1.921875 -8.96875 C 2.453125 -9.4375 3.140625 -9.6875 3.984375 -9.71875 C 5.023438 -9.71875 5.988281 -9.457031 6.875 -8.9375 Z M 6.390625 -7.9375 "/></g></g></g><g fill="#ffffff" fill-opacity="1"><g transform="translate(130.582197, 267.19047)"><g><path d="M 7.671875 -9.65625 L 7.671875 -8.421875 L 2.6875 -8.421875 L 2.6875 -5.484375 L 7.140625 -5.484375 L 7.140625 -4.234375 L 2.6875 -4.234375 L 2.6875 -1.25 L 7.859375 -1.25 L 7.859375 0 L 1.390625 0 L 1.390625 -9.65625 Z M 7.671875 -9.65625 "/></g></g></g><g fill="#ffffff" fill-opacity="1"><g transform="translate(139.298268, 267.19047)"><g><path d="M 7.671875 -9.65625 L 7.671875 -8.421875 L 2.6875 -8.421875 L 2.6875 -5.484375 L 7.140625 -5.484375 L 7.140625 -4.234375 L 2.6875 -4.234375 L 2.6875 -1.25 L 7.859375 -1.25 L 7.859375 0 L 1.390625 0 L 1.390625 -9.65625 Z M 7.671875 -9.65625 "/></g></g></g><g fill="#ffffff" fill-opacity="1"><g transform="translate(148.01434, 267.19047)"><g><path d="M 2.671875 -5.296875 L 2.828125 -5.546875 L 6.78125 -9.65625 L 8.453125 -9.65625 L 4.46875 -5.515625 L 8.6875 0 L 7.046875 0 L 3.515625 -4.6875 L 2.703125 -3.90625 L 2.71875 0 L 1.390625 0 L 1.390625 -9.65625 L 2.71875 -9.65625 L 2.71875 -5.765625 Z M 2.671875 -5.296875 "/></g></g></g><g fill="#ffffff" fill-opacity="1"><g transform="translate(157.090809, 267.19047)"><g/></g></g><g fill="#ffffff" fill-opacity="1"><g transform="translate(161.3087, 267.19047)"><g><path d="M 1.390625 -9.65625 L 4.03125 -9.65625 C 5.238281 -9.65625 6.234375 -9.414062 7.015625 -8.9375 C 7.804688 -8.46875 8.378906 -7.851562 8.734375 -7.09375 C 9.097656 -6.34375 9.28125 -5.550781 9.28125 -4.71875 C 9.28125 -3.78125 9.0625 -2.953125 8.625 -2.234375 C 8.1875 -1.515625 7.601562 -0.960938 6.875 -0.578125 C 6.144531 -0.191406 5.351562 0 4.5 0 L 1.390625 0 Z M 4.25 -1.25 C 4.957031 -1.25 5.59375 -1.390625 6.15625 -1.671875 C 6.71875 -1.953125 7.15625 -2.359375 7.46875 -2.890625 C 7.789062 -3.429688 7.953125 -4.070312 7.953125 -4.8125 C 7.953125 -5.5625 7.785156 -6.207031 7.453125 -6.75 C 7.117188 -7.300781 6.675781 -7.71875 6.125 -8 C 5.582031 -8.28125 5 -8.421875 4.375 -8.421875 L 2.6875 -8.421875 L 2.6875 -1.25 Z M 4.25 -1.25 "/></g></g></g><g fill="#ffffff" fill-opacity="1"><g transform="translate(171.372897, 267.19047)"><g><path d="M 2.6875 -9.65625 L 2.6875 0 L 1.390625 0 L 1.390625 -9.65625 Z M 2.6875 -9.65625 "/></g></g></g><g fill="#ffffff" fill-opacity="1"><g transform="translate(175.443961, 267.19047)"><g><path d="M 6.390625 -7.9375 C 6.035156 -8.125 5.660156 -8.273438 5.265625 -8.390625 C 4.878906 -8.503906 4.515625 -8.5625 4.171875 -8.5625 C 3.640625 -8.5625 3.21875 -8.441406 2.90625 -8.203125 C 2.601562 -7.972656 2.453125 -7.648438 2.453125 -7.234375 C 2.453125 -6.835938 2.632812 -6.507812 3 -6.25 C 3.363281 -6 3.878906 -5.75 4.546875 -5.5 C 5.046875 -5.320312 5.460938 -5.128906 5.796875 -4.921875 C 6.140625 -4.710938 6.425781 -4.421875 6.65625 -4.046875 C 6.882812 -3.679688 7 -3.210938 7 -2.640625 C 7 -2.128906 6.867188 -1.660156 6.609375 -1.234375 C 6.347656 -0.816406 5.976562 -0.488281 5.5 -0.25 C 5.03125 -0.0078125 4.472656 0.109375 3.828125 0.109375 C 3.234375 0.109375 2.660156 0.015625 2.109375 -0.171875 C 1.554688 -0.367188 1.070312 -0.613281 0.65625 -0.90625 L 1.234375 -1.9375 C 1.554688 -1.6875 1.945312 -1.472656 2.40625 -1.296875 C 2.875 -1.128906 3.3125 -1.046875 3.71875 -1.046875 C 4.226562 -1.046875 4.675781 -1.175781 5.0625 -1.4375 C 5.457031 -1.707031 5.65625 -2.101562 5.65625 -2.625 C 5.65625 -3.070312 5.488281 -3.425781 5.15625 -3.6875 C 4.832031 -3.957031 4.378906 -4.207031 3.796875 -4.4375 C 3.253906 -4.644531 2.800781 -4.84375 2.4375 -5.03125 C 2.070312 -5.226562 1.757812 -5.5 1.5 -5.84375 C 1.25 -6.1875 1.125 -6.617188 1.125 -7.140625 C 1.125 -7.890625 1.390625 -8.5 1.921875 -8.96875 C 2.453125 -9.4375 3.140625 -9.6875 3.984375 -9.71875 C 5.023438 -9.71875 5.988281 -9.457031 6.875 -8.9375 Z M 6.390625 -7.9375 "/></g></g></g><g fill="#ffffff" fill-opacity="1"><g transform="translate(183.212347, 267.19047)"><g><path d="M 8.484375 -0.71875 C 8.171875 -0.519531 7.773438 -0.332031 7.296875 -0.15625 C 6.828125 0.0195312 6.3125 0.109375 5.75 0.109375 C 4.757812 0.109375 3.882812 -0.109375 3.125 -0.546875 C 2.375 -0.984375 1.796875 -1.570312 1.390625 -2.3125 C 0.984375 -3.050781 0.78125 -3.863281 0.78125 -4.75 C 0.78125 -5.707031 0.984375 -6.566406 1.390625 -7.328125 C 1.804688 -8.085938 2.375 -8.679688 3.09375 -9.109375 C 3.820312 -9.546875 4.648438 -9.765625 5.578125 -9.765625 C 6.117188 -9.765625 6.625 -9.691406 7.09375 -9.546875 C 7.5625 -9.410156 7.984375 -9.222656 8.359375 -8.984375 L 7.84375 -7.78125 C 7.101562 -8.269531 6.359375 -8.515625 5.609375 -8.515625 C 4.984375 -8.515625 4.40625 -8.347656 3.875 -8.015625 C 3.351562 -7.691406 2.929688 -7.25 2.609375 -6.6875 C 2.296875 -6.125 2.140625 -5.503906 2.140625 -4.828125 C 2.140625 -4.128906 2.28125 -3.5 2.5625 -2.9375 C 2.851562 -2.375 3.269531 -1.9375 3.8125 -1.625 C 4.351562 -1.3125 4.972656 -1.15625 5.671875 -1.15625 C 6.535156 -1.15625 7.289062 -1.398438 7.9375 -1.890625 Z M 8.484375 -0.71875 "/></g></g></g><g fill="#ffffff" fill-opacity="1"><g transform="translate(192.475686, 267.19047)"><g><path d="M 0.78125 -4.828125 C 0.78125 -5.703125 1.003906 -6.519531 1.453125 -7.28125 C 1.898438 -8.039062 2.5 -8.644531 3.25 -9.09375 C 4 -9.539062 4.820312 -9.765625 5.71875 -9.765625 C 6.601562 -9.765625 7.421875 -9.539062 8.171875 -9.09375 C 8.929688 -8.644531 9.535156 -8.039062 9.984375 -7.28125 C 10.429688 -6.519531 10.65625 -5.703125 10.65625 -4.828125 C 10.65625 -3.929688 10.429688 -3.101562 9.984375 -2.34375 C 9.546875 -1.59375 8.945312 -0.992188 8.1875 -0.546875 C 7.425781 -0.109375 6.601562 0.109375 5.71875 0.109375 C 4.820312 0.109375 3.992188 -0.109375 3.234375 -0.546875 C 2.484375 -0.984375 1.882812 -1.578125 1.4375 -2.328125 C 1 -3.078125 0.78125 -3.910156 0.78125 -4.828125 Z M 2.125 -4.8125 C 2.125 -4.15625 2.285156 -3.546875 2.609375 -2.984375 C 2.929688 -2.421875 3.367188 -1.972656 3.921875 -1.640625 C 4.472656 -1.316406 5.082031 -1.15625 5.75 -1.15625 C 6.40625 -1.15625 7.003906 -1.316406 7.546875 -1.640625 C 8.097656 -1.960938 8.53125 -2.40625 8.84375 -2.96875 C 9.164062 -3.539062 9.328125 -4.160156 9.328125 -4.828125 C 9.328125 -5.492188 9.164062 -6.109375 8.84375 -6.671875 C 8.519531 -7.242188 8.082031 -7.691406 7.53125 -8.015625 C 6.976562 -8.347656 6.375 -8.515625 5.71875 -8.515625 C 5.0625 -8.515625 4.457031 -8.347656 3.90625 -8.015625 C 3.351562 -7.679688 2.914062 -7.226562 2.59375 -6.65625 C 2.28125 -6.09375 2.125 -5.476562 2.125 -4.8125 Z M 2.125 -4.8125 "/></g></g></g><g fill="#ffffff" fill-opacity="1"><g transform="translate(203.914708, 267.19047)"><g><path d="M 11 -9.96875 L 11 0 L 9.71875 0 L 9.71875 -6.25 L 6.15625 -1.21875 L 6.125 -1.21875 L 2.640625 -6.078125 L 2.640625 0 L 1.390625 0 L 1.390625 -9.96875 L 1.40625 -9.96875 L 6.15625 -3.234375 L 10.984375 -9.96875 Z M 11 -9.96875 "/></g></g></g><g fill="#ffffff" fill-opacity="1"><g transform="translate(216.28807, 267.19047)"><g><path d="M 7.125 -9.65625 L 7.125 -8.421875 L 2.6875 -8.421875 L 2.6875 -5.34375 L 6.578125 -5.34375 L 6.578125 -4.09375 L 2.6875 -4.09375 L 2.6875 0 L 1.390625 0 L 1.390625 -9.65625 Z M 7.125 -9.65625 "/></g></g></g><g fill="#ffffff" fill-opacity="1"><g transform="translate(224.149886, 267.19047)"><g><path d="M 0.78125 -4.828125 C 0.78125 -5.703125 1.003906 -6.519531 1.453125 -7.28125 C 1.898438 -8.039062 2.5 -8.644531 3.25 -9.09375 C 4 -9.539062 4.820312 -9.765625 5.71875 -9.765625 C 6.601562 -9.765625 7.421875 -9.539062 8.171875 -9.09375 C 8.929688 -8.644531 9.535156 -8.039062 9.984375 -7.28125 C 10.429688 -6.519531 10.65625 -5.703125 10.65625 -4.828125 C 10.65625 -3.929688 10.429688 -3.101562 9.984375 -2.34375 C 9.546875 -1.59375 8.945312 -0.992188 8.1875 -0.546875 C 7.425781 -0.109375 6.601562 0.109375 5.71875 0.109375 C 4.820312 0.109375 3.992188 -0.109375 3.234375 -0.546875 C 2.484375 -0.984375 1.882812 -1.578125 1.4375 -2.328125 C 1 -3.078125 0.78125 -3.910156 0.78125 -4.828125 Z M 2.125 -4.8125 C 2.125 -4.15625 2.285156 -3.546875 2.609375 -2.984375 C 2.929688 -2.421875 3.367188 -1.972656 3.921875 -1.640625 C 4.472656 -1.316406 5.082031 -1.15625 5.75 -1.15625 C 6.40625 -1.15625 7.003906 -1.316406 7.546875 -1.640625 C 8.097656 -1.960938 8.53125 -2.40625 8.84375 -2.96875 C 9.164062 -3.539062 9.328125 -4.160156 9.328125 -4.828125 C 9.328125 -5.492188 9.164062 -6.109375 8.84375 -6.671875 C 8.519531 -7.242188 8.082031 -7.691406 7.53125 -8.015625 C 6.976562 -8.347656 6.375 -8.515625 5.71875 -8.515625 C 5.0625 -8.515625 4.457031 -8.347656 3.90625 -8.015625 C 3.351562 -7.679688 2.914062 -7.226562 2.59375 -6.65625 C 2.28125 -6.09375 2.125 -5.476562 2.125 -4.8125 Z M 2.125 -4.8125 "/></g></g></g><g fill="#ffffff" fill-opacity="1"><g transform="translate(235.588908, 267.19047)"><g><path d="M 6.703125 0 L 4.4375 -3.5625 C 4.363281 -3.550781 4.253906 -3.546875 4.109375 -3.546875 L 2.6875 -3.546875 L 2.6875 0 L 1.390625 0 L 1.390625 -9.65625 L 3.96875 -9.65625 C 4.625 -9.65625 5.207031 -9.539062 5.71875 -9.3125 C 6.238281 -9.082031 6.644531 -8.738281 6.9375 -8.28125 C 7.238281 -7.832031 7.390625 -7.296875 7.390625 -6.671875 C 7.390625 -6.066406 7.253906 -5.515625 6.984375 -5.015625 C 6.722656 -4.523438 6.320312 -4.148438 5.78125 -3.890625 L 8.21875 0 Z M 4.09375 -4.8125 C 4.78125 -4.8125 5.273438 -4.992188 5.578125 -5.359375 C 5.890625 -5.722656 6.046875 -6.140625 6.046875 -6.609375 C 6.046875 -6.898438 5.984375 -7.179688 5.859375 -7.453125 C 5.734375 -7.734375 5.53125 -7.960938 5.25 -8.140625 C 4.96875 -8.328125 4.613281 -8.421875 4.1875 -8.421875 L 2.6875 -8.421875 L 2.6875 -4.8125 Z M 4.09375 -4.8125 "/></g></g></g><g fill="#ffffff" fill-opacity="1"><g transform="translate(244.39842, 267.19047)"><g><path d="M 7.09375 -9.65625 L 7.09375 -8.421875 L 4.5 -8.421875 L 4.5 0 L 3.203125 0 L 3.203125 -8.421875 L 0.6875 -8.421875 L 0.6875 -9.65625 Z M 7.09375 -9.65625 "/></g></g></g></svg>